<?xml version="1.0" standalone="no"?>
<!DOCTYPE svg PUBLIC "-//W3C//DTD SVG 20010904//EN"
 "http://www.w3.org/TR/2001/REC-SVG-20010904/DTD/svg10.dtd">
<svg version="1.0" xmlns="http://www.w3.org/2000/svg"
 width="1080.000000pt" height="1080.000000pt" viewBox="0 0 1080.000000 1080.000000"
 preserveAspectRatio="xMidYMid meet">

<g transform="translate(0.000000,1080.000000) scale(0.100000,-0.100000)"
fill="#000000" stroke="none">
<path d="M0 5400 l0 -5400 5400 0 5400 0 0 5400 0 5400 -5400 0 -5400 0 0
-5400z m5480 4923 c41 -28 109 -109 140 -166 15 -27 23 -32 54 -32 23 0 41 -6
46 -15 22 -39 60 -167 66 -223 8 -71 17 -87 49 -87 25 0 111 -54 160 -100 17
-15 50 -37 75 -48 57 -26 81 -49 154 -145 57 -74 82 -123 128 -247 24 -63 39
-88 89 -150 20 -25 48 -65 63 -90 15 -25 45 -72 66 -105 159 -245 164 -257
158 -424 -4 -119 -7 -133 -35 -188 -17 -32 -34 -76 -38 -96 -10 -52 26 -97
108 -137 64 -31 97 -68 97 -109 0 -12 -14 -47 -31 -79 -18 -31 -44 -83 -60
-114 -39 -77 -86 -122 -159 -149 -56 -20 -60 -24 -60 -54 0 -31 -29 -132 -55
-190 -18 -39 -45 -134 -45 -155 0 -10 15 -33 34 -53 19 -20 46 -57 60 -83 48
-85 32 -268 -30 -360 -20 -30 -24 -42 -15 -54 28 -39 51 -92 51 -117 -1 -42
-34 -107 -68 -131 -40 -29 -113 -29 -157 -2 -78 48 -90 192 -21 249 14 12 13
17 -9 45 -14 18 -30 47 -36 64 -13 38 -23 34 -40 -16 -35 -109 -154 -317 -209
-367 -25 -22 -26 -75 -5 -175 22 -102 43 -163 77 -216 l29 -47 50 56 c121 135
302 145 438 22 72 -65 82 -91 80 -200 -1 -53 0 -97 2 -99 4 -3 85 -46 249
-132 26 -14 62 -24 87 -24 72 0 148 -19 233 -58 25 -11 58 -24 74 -28 34 -8
85 -40 136 -84 19 -16 58 -49 85 -71 28 -23 55 -54 61 -68 6 -14 25 -36 43
-49 17 -12 31 -29 31 -37 0 -7 11 -27 25 -44 14 -16 33 -50 41 -75 9 -25 20
-48 25 -52 5 -3 9 -17 9 -32 0 -15 7 -40 16 -57 41 -77 81 -320 91 -548 l6
-152 51 -53 c67 -71 83 -97 106 -179 26 -90 19 -199 -20 -298 l-28 -70 -648 0
c-357 0 -660 -3 -674 -7 -14 -4 -843 -9 -1842 -10 -999 -2 -1820 -6 -1824 -11
-4 -4 5 -21 21 -37 l29 -30 -57 0 c-51 0 -60 4 -104 40 -26 22 -51 44 -54 48
-4 4 -71 73 -150 155 -89 91 -160 155 -186 168 l-42 20 -98 -26 c-146 -40
-184 -35 -277 39 -40 32 -145 165 -172 218 -16 30 -15 31 13 54 l28 22 37 -38
c60 -62 96 -68 217 -36 56 14 116 26 133 26 61 0 124 -48 271 -209 l142 -155
3 55 c2 30 7 58 13 64 5 5 9 19 9 32 0 44 30 95 90 156 66 67 63 57 62 212 0
50 4 95 9 101 4 5 10 50 13 98 2 48 9 93 15 99 6 6 11 39 11 73 0 35 4 65 9
68 5 4 12 29 16 58 4 29 11 59 15 68 26 51 70 153 70 163 0 11 13 29 67 95 13
15 23 35 23 45 0 9 12 27 27 40 82 67 86 74 79 130 -7 57 -11 77 -26 152 -6
28 -17 97 -25 155 -14 101 -26 174 -45 270 -14 73 -29 162 -37 215 -6 38 -13
52 -30 60 -12 5 -30 24 -40 42 -16 31 -16 33 6 77 16 30 21 53 17 68 -4 13
-11 54 -16 92 -7 59 -13 73 -44 105 -27 28 -36 45 -36 72 0 70 42 96 205 124
55 9 118 21 141 26 33 7 48 5 79 -11 77 -39 91 -70 59 -132 -16 -31 -16 -40 6
-169 10 -53 19 -74 46 -103 37 -39 44 -77 19 -110 -8 -11 -15 -36 -15 -55 0
-39 31 -232 55 -351 29 -140 36 -175 49 -255 18 -119 21 -121 102 -118 38 2
73 8 78 13 6 6 17 10 26 10 9 0 33 9 55 20 22 11 44 20 51 20 6 0 19 9 29 20
10 11 24 20 31 20 7 0 14 3 16 8 2 4 26 19 53 33 l50 26 -2 49 c-3 68 15 151
42 195 31 48 103 109 138 116 15 3 30 10 33 14 3 5 37 9 76 9 86 0 170 -36
235 -101 23 -23 48 -39 55 -36 12 4 25 27 56 97 21 45 52 200 54 266 0 11 -29
60 -65 110 -61 85 -157 268 -171 327 -6 27 -26 38 -26 14 0 -7 -14 -35 -31
-62 -25 -39 -29 -52 -20 -65 22 -30 51 -95 51 -118 0 -39 -40 -111 -75 -132
-42 -26 -108 -26 -150 0 -35 21 -75 93 -75 132 0 23 29 88 51 118 9 12 4 26
-20 65 -42 69 -59 171 -43 263 14 82 31 119 83 174 25 27 37 48 33 58 -3 8 -8
32 -11 53 -3 21 -10 40 -14 43 -5 3 -9 12 -9 20 0 9 -12 41 -26 72 -15 33 -29
83 -31 118 l-5 60 -47 14 c-50 14 -91 37 -104 57 -4 7 -14 18 -21 26 -8 8 -23
29 -33 48 -10 19 -28 48 -40 66 -13 17 -23 35 -23 41 0 5 -11 30 -25 56 -14
26 -25 55 -25 64 1 24 39 63 85 87 21 11 60 40 87 65 l50 46 -27 59 c-14 33
-30 68 -35 77 -6 10 -10 27 -10 39 0 11 -4 28 -9 37 -13 26 -19 144 -10 211 9
65 22 99 65 171 15 25 34 59 43 75 9 17 25 44 36 60 11 17 25 37 30 46 6 9 33
48 62 85 103 136 112 150 128 194 10 25 23 59 30 75 7 17 20 48 29 69 19 47
142 220 182 257 31 29 167 119 181 119 13 1 53 37 53 49 0 5 19 11 42 13 l43
3 13 55 c8 30 17 78 22 105 7 51 23 102 43 143 9 19 17 22 42 18 33 -7 44 3
79 64 27 47 63 87 110 121 46 34 107 39 146 12z m3453 -6112 c119 -41 214
-128 329 -299 55 -83 93 -128 120 -143 20 -11 71 11 86 37 7 12 25 -2 93 -71
46 -48 84 -94 84 -103 0 -24 -82 -71 -137 -78 -95 -13 -126 11 -267 204 -156
216 -210 261 -316 262 -90 0 -199 -69 -231 -147 -30 -71 -11 -139 62 -229 l34
-42 -36 -27 -35 -27 -37 28 c-143 109 -233 248 -231 359 2 111 100 231 227
277 65 24 184 23 255 -1z m-6576 -803 l123 -123 0 -548 c0 -461 2 -552 15
-576 35 -68 200 -180 291 -197 54 -10 102 4 144 42 l39 35 108 -67 c59 -36
110 -68 112 -70 8 -8 -35 -47 -74 -67 -85 -44 -251 -15 -433 77 -183 92 -383
259 -436 363 l-26 52 0 481 0 480 -255 0 c-140 0 -255 -2 -255 -5 0 -3 22 -49
49 -103 128 -256 163 -480 97 -616 -76 -155 -207 -220 -369 -182 -138 32 -279
134 -331 238 -97 195 106 400 300 303 27 -13 71 -47 98 -74 l50 -51 -23 -24
-23 -25 -27 20 c-35 26 -72 18 -115 -26 -95 -95 -86 -215 16 -215 139 0 263
188 262 400 0 106 -15 171 -69 288 l-34 72 -270 0 -271 0 0 120 0 120 592 0
593 0 122 -122z m705 5 l118 -118 0 -553 c0 -468 2 -557 15 -581 37 -72 211
-186 304 -198 51 -7 123 18 150 53 l19 24 104 -61 c56 -33 109 -66 116 -71 18
-15 0 -34 -62 -66 -125 -64 -339 -6 -587 159 -129 87 -251 205 -289 282 l-30
60 0 474 0 473 -158 0 -157 0 -120 120 -120 120 290 0 290 0 117 -117z m1380
0 l118 -118 0 -548 c0 -619 -4 -586 79 -658 52 -45 185 -115 236 -125 54 -10
103 4 143 40 l37 33 105 -63 c58 -35 110 -65 115 -67 17 -6 -11 -31 -67 -62
-96 -53 -226 -35 -417 56 -143 68 -260 148 -363 249 -113 111 -127 143 -128
277 l0 102 -61 -42 -61 -42 -96 0 c-92 0 -101 2 -176 38 -103 49 -186 109
-267 193 -113 117 -113 120 -117 387 l-3 227 -108 0 -108 0 -29 33 c-15 17
-66 71 -113 120 l-84 87 624 0 624 0 117 -117z m705 -5 l123 -123 0 -548 c0
-461 2 -552 15 -576 37 -73 210 -186 302 -198 52 -7 105 11 142 48 l29 29 111
-66 c61 -37 111 -71 111 -77 0 -12 -24 -32 -75 -59 -85 -46 -236 -21 -415 69
-144 73 -235 138 -341 243 -149 149 -139 99 -139 663 l0 477 -157 0 -158 0
-112 112 c-62 62 -113 116 -113 120 0 5 125 8 277 8 l278 0 122 -122z m1750 0
l123 -123 0 -555 0 -556 23 -32 c52 -69 198 -162 280 -177 56 -11 104 2 146
40 l38 35 109 -66 c60 -36 111 -68 114 -71 3 -3 -10 -18 -27 -33 -44 -39 -129
-63 -190 -54 -187 27 -470 181 -633 344 -119 119 -120 123 -120 403 l0 235
-32 27 c-18 15 -42 32 -54 37 -60 28 -155 -32 -193 -122 -13 -30 -27 -94 -34
-159 l-12 -110 -119 51 -118 51 6 96 7 96 -33 32 c-18 18 -50 39 -71 48 -146
61 -323 -198 -272 -398 55 -214 325 -449 485 -422 21 4 63 21 94 40 l55 33 87
-82 88 -83 -46 -27 c-88 -52 -149 -58 -270 -27 -173 44 -376 188 -519 369
-229 287 -259 554 -82 743 58 62 114 89 185 89 93 0 211 -72 298 -181 l38 -48
26 53 c51 105 160 177 239 160 51 -10 133 -52 187 -95 27 -21 52 -39 55 -39 3
0 5 81 5 180 l0 180 -683 0 -682 0 -96 98 c-52 53 -103 107 -113 120 l-19 22
804 0 804 0 122 -122z m1915 5 l117 -118 3 -560 3 -560 25 -33 c58 -73 210
-165 297 -178 58 -8 87 0 131 40 l37 34 105 -64 c58 -35 110 -65 115 -67 17
-6 -16 -37 -69 -65 -41 -21 -65 -26 -121 -25 -174 1 -473 153 -655 333 -127
125 -124 115 -128 448 l-3 282 -230 0 c-140 0 -238 -4 -250 -10 -37 -21 -23
-54 42 -100 92 -64 190 -160 210 -205 24 -53 24 -147 0 -200 -26 -57 -106
-128 -174 -154 -70 -26 -176 -28 -261 -6 -240 63 -489 315 -627 634 -21 50
-39 93 -39 95 0 5 78 36 91 36 5 0 15 -15 21 -32 26 -75 113 -234 169 -308
106 -140 215 -211 339 -217 67 -4 81 -2 129 24 77 39 114 89 115 152 1 72 -10
86 -211 239 -78 60 -103 95 -103 144 0 44 24 76 74 99 37 17 70 19 374 19
l332 0 0 100 0 100 -763 0 -762 0 -120 120 -120 120 895 0 895 0 117 -117z
m700 0 l118 -118 0 -553 c0 -468 2 -557 15 -581 23 -45 113 -118 193 -158 l72
-36 0 -44 c0 -23 -2 -43 -5 -43 -3 0 -31 13 -63 29 -180 91 -383 262 -441 370
l-31 59 0 476 0 476 -153 0 -152 0 -120 120 -120 120 285 0 285 0 117 -117z
m378 -3 l0 -120 -68 0 -69 0 -106 113 c-58 61 -109 115 -113 120 -4 4 74 7
174 7 l182 0 0 -120z m-5077 -1861 c43 -12 103 -60 113 -91 5 -15 0 -26 -17
-39 -31 -24 -56 -24 -64 1 -7 24 -54 50 -87 50 -34 0 -68 -27 -68 -55 0 -29
22 -45 112 -79 87 -32 113 -50 132 -91 50 -105 -31 -205 -166 -205 -70 0 -125
25 -162 73 -35 46 -33 64 11 85 31 15 37 15 41 2 3 -8 18 -27 33 -42 23 -23
36 -28 78 -28 38 0 56 5 71 20 42 42 20 70 -94 115 -120 46 -146 73 -146 151
0 45 5 59 28 84 27 30 88 59 127 60 11 0 37 -5 58 -11z m-1390 -176 c33 -95
63 -173 66 -173 3 0 33 79 66 175 l60 175 48 0 c26 0 47 -3 47 -7 0 -4 -39
-116 -87 -250 l-86 -243 -48 0 c-42 0 -48 3 -57 28 -80 220 -162 455 -162 463
0 6 20 9 47 7 l47 -3 59 -172z m848 -67 c49 -132 89 -243 89 -248 0 -5 -21 -8
-47 -6 -46 3 -48 4 -64 48 l-17 45 -99 3 -99 3 -15 -48 -15 -48 -52 -3 -52 -3
29 78 c87 234 153 408 157 415 3 5 26 8 51 6 l45 -3 89 -239z m1269 199 l0
-45 -70 0 -70 0 0 -205 0 -205 -45 0 -45 0 0 205 0 205 -70 0 -70 0 0 45 0 45
185 0 185 0 0 -45z m526 24 c48 -23 79 -65 89 -120 9 -46 -22 -120 -59 -144
-14 -10 -26 -21 -26 -26 0 -4 25 -49 55 -99 l55 -90 -53 0 -52 0 -53 90 -52
90 -45 0 -45 0 0 -90 0 -90 -45 0 -45 0 0 250 0 250 117 0 c98 0 124 -3 159
-21z m669 -220 c50 -133 92 -245 93 -250 2 -5 -19 -9 -46 -9 l-50 0 -17 50
-17 50 -98 0 -99 0 -18 -50 -18 -50 -47 0 c-27 0 -48 3 -48 6 0 3 41 115 91
250 l91 244 47 0 47 0 89 -241z m492 131 c36 -58 68 -109 73 -113 4 -5 39 43
76 107 l69 115 48 1 47 0 0 -250 0 -250 -45 0 -45 0 -2 162 -3 163 -64 -108
c-35 -59 -69 -107 -77 -107 -7 0 -41 47 -76 105 l-63 105 -3 -160 -2 -160 -45
0 -45 0 0 251 0 250 47 -3 46 -3 64 -105z"/>
<path d="M5382 9004 c-12 -8 -32 -34 -44 -57 -19 -36 -23 -57 -22 -142 0 -92
2 -104 29 -147 52 -83 93 -83 139 2 27 50 45 140 28 140 -6 0 -14 -4 -17 -10
-3 -5 -22 -10 -41 -10 -28 0 -38 6 -54 33 -26 42 -25 60 3 93 17 19 33 27 55
26 41 -1 42 20 3 59 -34 33 -47 35 -79 13z"/>
<path d="M5368 4873 c-39 -44 -53 -90 -53 -183 0 -50 6 -99 14 -120 19 -47 60
-90 86 -90 45 0 92 79 102 171 6 59 5 62 -13 54 -45 -19 -63 -17 -88 8 -14 15
-26 36 -26 47 0 32 46 73 76 67 31 -6 30 4 -2 42 -32 38 -62 39 -96 4z"/>
<path d="M2968 4053 c-40 -45 -53 -90 -53 -188 1 -94 13 -134 58 -182 53 -58
117 3 146 140 7 32 10 61 7 64 -3 3 -19 0 -36 -7 -54 -23 -112 27 -94 82 8 26
50 51 74 45 28 -7 25 12 -7 45 -34 35 -62 36 -95 1z"/>
<path d="M7773 4058 c-45 -50 -57 -88 -57 -188 0 -97 13 -138 62 -192 32 -37
80 -13 114 57 19 39 43 143 35 151 -4 4 -20 1 -37 -6 -39 -16 -76 -1 -90 35
-18 48 25 104 71 92 27 -7 24 15 -6 47 -30 32 -65 33 -92 4z"/>
<path d="M3787 3283 c-13 -12 -7 -565 6 -603 40 -116 217 -103 366 27 28 25
72 70 96 100 l45 55 0 214 0 214 -253 0 c-140 0 -257 -3 -260 -7z"/>
<path d="M4114 1363 c-9 -26 -23 -63 -31 -82 -7 -18 -13 -35 -13 -37 0 -2 29
-4 64 -4 l65 0 -30 82 c-17 46 -32 84 -34 86 -1 2 -11 -18 -21 -45z"/>
<path d="M5880 1385 l0 -75 64 0 c80 0 116 23 116 76 0 56 -27 74 -110 74
l-70 0 0 -75z"/>
<path d="M6567 1332 c-15 -42 -27 -80 -27 -84 0 -5 27 -8 60 -8 33 0 60 2 60
4 0 10 -53 152 -59 158 -3 4 -19 -27 -34 -70z"/>
</g>
</svg>
