<?xml version="1.0" standalone="no"?>
<!DOCTYPE svg PUBLIC "-//W3C//DTD SVG 20010904//EN"
 "http://www.w3.org/TR/2001/REC-SVG-20010904/DTD/svg10.dtd">
<svg version="1.0" xmlns="http://www.w3.org/2000/svg"
 width="948.000000pt" height="364.000000pt" viewBox="0 0 948.000000 364.000000"
 preserveAspectRatio="xMidYMid meet">

<g transform="translate(0.000000,364.000000) scale(0.100000,-0.100000)"
fill="#000000" stroke="none">
<path d="M0 1820 l0 -1820 4740 0 4740 0 0 1820 0 1820 -4740 0 -4740 0 0
-1820z m1301 1604 c39 -20 70 -18 174 11 49 14 103 25 119 25 67 0 120 -46
385 -334 142 -155 272 -298 290 -318 l33 -38 -57 0 -57 0 -197 193 c-108 107
-207 201 -221 210 -33 23 -91 21 -170 -4 -130 -41 -192 -25 -294 78 -53 53
-156 194 -156 213 0 4 14 17 32 27 l32 19 30 -34 c16 -18 42 -40 57 -48z
m6867 28 c122 -39 204 -111 331 -296 74 -107 120 -156 146 -156 8 0 29 13 47
28 l33 29 84 -89 c97 -103 97 -106 11 -150 -68 -36 -133 -37 -181 -5 -19 12
-69 69 -111 127 -215 291 -243 315 -363 315 -58 0 -78 -5 -115 -27 -80 -47
-130 -119 -130 -185 1 -38 34 -108 76 -160 20 -24 35 -45 33 -47 -2 -1 -19
-13 -37 -25 l-33 -23 -37 28 c-66 50 -159 154 -191 214 -56 104 -52 193 12
287 39 56 122 118 187 138 65 20 168 18 238 -3z m-6570 -802 l122 -119 0 -546
c0 -437 3 -552 14 -578 33 -80 232 -207 323 -207 47 0 107 25 136 58 19 21 19
21 128 -46 69 -42 108 -72 107 -82 -2 -8 -25 -28 -52 -45 -45 -27 -57 -30
-130 -29 -91 1 -187 30 -317 94 -193 97 -394 265 -443 371 l-26 54 0 478 0
477 -256 0 c-141 0 -254 -3 -252 -8 2 -4 26 -55 54 -112 93 -190 130 -331 122
-474 -7 -126 -68 -229 -176 -293 -119 -70 -327 -20 -470 112 -108 100 -136
197 -88 300 56 121 189 166 308 105 39 -19 138 -106 138 -120 0 -3 -9 -16 -19
-30 -18 -23 -21 -23 -38 -8 -32 28 -57 30 -93 5 -48 -31 -90 -96 -97 -146 -5
-35 -2 -46 17 -66 26 -28 77 -33 127 -14 43 16 112 88 144 151 81 160 77 324
-15 522 l-35 76 -270 0 -271 0 0 120 0 120 593 0 592 -1 123 -119z m704 3
l118 -118 0 -536 c0 -295 3 -552 7 -570 15 -78 205 -214 317 -226 61 -7 90 2
134 41 l37 34 75 -45 c164 -101 154 -92 133 -115 -83 -92 -266 -82 -481 26
-194 98 -406 277 -457 387 l-25 54 0 473 0 472 -158 0 -157 0 -120 120 -120
120 290 0 290 0 117 -117z m1385 -5 l123 -123 0 -560 0 -560 30 -37 c64 -78
234 -168 317 -168 37 0 86 21 120 52 l22 20 110 -63 c61 -35 109 -68 108 -74
-7 -23 -99 -73 -145 -80 -171 -23 -499 133 -703 335 -111 110 -123 136 -127
272 l-4 107 -45 -35 c-65 -50 -139 -69 -216 -55 -126 22 -283 117 -399 240
-106 111 -102 100 -108 371 l-5 235 -105 3 -106 3 -119 119 -120 120 625 0
625 0 122 -122z m706 3 l117 -119 0 -546 c0 -440 3 -553 14 -579 32 -79 234
-207 325 -207 49 0 99 21 131 55 l22 23 111 -67 c62 -37 112 -72 111 -77 -1
-20 -95 -72 -142 -79 -176 -24 -509 140 -715 353 -38 40 -78 93 -92 124 l-25
53 0 473 0 472 -158 0 -157 0 -101 103 c-55 56 -106 110 -113 120 -13 16 2 17
270 17 l284 0 118 -119z m1744 -3 l123 -123 0 -548 c0 -463 2 -552 15 -576 41
-80 215 -191 311 -199 56 -5 121 21 146 57 14 19 18 17 126 -47 62 -37 112
-72 112 -78 0 -18 -70 -61 -119 -74 -134 -35 -421 82 -648 265 -99 79 -148
134 -179 200 -23 48 -24 59 -24 282 l0 232 -36 30 c-46 37 -74 44 -124 31 -47
-13 -98 -68 -123 -136 -10 -26 -22 -93 -28 -148 -6 -56 -12 -102 -14 -104 -1
-1 -55 21 -119 50 l-118 52 7 94 c7 94 7 94 -21 124 -102 106 -234 65 -314
-99 -42 -85 -52 -193 -26 -274 42 -128 193 -297 322 -360 106 -53 206 -45 279
22 21 18 22 18 109 -63 l88 -82 -28 -23 c-180 -143 -561 21 -817 352 -194 251
-233 481 -112 670 38 61 84 101 144 128 111 49 265 -18 382 -165 l38 -49 26
51 c32 64 86 123 129 144 55 26 132 21 200 -14 33 -17 78 -46 102 -65 23 -19
45 -35 48 -35 4 0 5 80 4 178 l-3 177 -679 3 -680 2 -24 23 c-13 12 -65 66
-114 120 l-90 97 803 0 804 0 122 -122z m1920 0 l123 -123 0 -555 0 -555 25
-37 c30 -44 153 -128 230 -157 85 -32 134 -28 189 14 26 19 48 35 51 35 4 0
205 -119 215 -128 3 -2 -11 -17 -30 -33 -49 -41 -128 -63 -199 -54 -216 26
-574 242 -697 420 l-39 57 -5 292 -5 291 -229 3 c-193 2 -233 0 -252 -13 -39
-25 -29 -48 39 -96 89 -62 187 -158 208 -204 24 -53 24 -147 0 -201 -48 -105
-144 -165 -275 -172 -104 -5 -174 9 -273 57 -203 98 -397 321 -514 592 -22 51
-38 92 -37 93 31 19 91 37 97 30 5 -5 23 -43 40 -85 60 -144 178 -312 269
-382 27 -20 74 -48 106 -63 50 -22 68 -26 135 -23 99 5 164 40 199 109 52 103
33 134 -191 305 -78 60 -107 99 -107 147 0 43 46 93 99 108 21 6 179 10 364
10 l328 0 -3 98 -3 97 -765 3 -765 2 -120 120 -120 120 895 0 895 0 122 -122z
m701 -1 l122 -124 0 -564 0 -563 58 -56 c33 -31 93 -73 138 -96 78 -40 79 -41
82 -82 4 -53 -2 -53 -98 -1 -192 105 -375 264 -424 369 l-26 55 0 473 0 472
-153 0 -152 0 -120 120 -120 120 286 0 285 0 122 -123z m372 3 l0 -120 -62 0
c-35 0 -68 4 -73 8 -6 4 -59 58 -119 120 l-109 112 181 0 182 0 0 -120z
m-5075 -1861 c38 -11 125 -84 125 -105 0 -5 -16 -18 -35 -28 l-36 -19 -27 32
c-49 58 -152 49 -152 -13 0 -32 11 -39 120 -83 75 -30 99 -45 117 -72 48 -71
19 -165 -60 -201 -91 -42 -216 -14 -264 59 -31 46 -29 58 14 79 31 15 37 15
41 2 3 -8 18 -27 33 -42 52 -53 169 -31 169 32 0 24 -26 42 -112 74 -36 13
-78 32 -93 42 -74 48 -73 170 1 219 53 34 97 41 159 24z m-1396 -157 c30 -86
58 -168 64 -182 8 -22 17 -1 71 155 l62 180 47 3 c31 2 47 -1 47 -9 0 -6 -34
-106 -76 -223 -42 -116 -81 -223 -86 -238 -9 -25 -15 -28 -57 -28 l-48 0 -86
243 c-48 134 -87 246 -87 250 0 4 21 7 48 7 l47 0 54 -158z m857 -92 l91 -245
-40 -3 c-55 -5 -62 0 -77 52 l-13 47 -100 -3 -99 -3 -18 -45 c-17 -43 -19 -45
-64 -48 -27 -2 -46 1 -46 7 0 6 37 109 81 228 45 120 86 228 90 241 8 20 15
23 56 20 l48 -3 91 -245z m1264 205 l0 -45 -70 0 -70 0 0 -205 0 -205 -45 0
-45 0 0 205 0 205 -70 0 -70 0 0 45 0 45 185 0 185 0 0 -45z m523 30 c20 -8
47 -30 61 -48 52 -68 47 -144 -14 -208 l-39 -42 41 -71 c23 -39 48 -81 56 -93
14 -23 14 -23 -39 -23 l-54 0 -50 90 -50 90 -47 0 -48 0 0 -90 0 -90 -45 0
-45 0 0 250 0 250 119 0 c82 0 129 -5 154 -15z m676 -230 c50 -135 91 -247 91
-250 0 -3 -21 -5 -48 -5 l-47 0 -18 50 -18 50 -99 0 -98 0 -17 -50 -17 -50
-50 0 c-44 0 -49 2 -43 18 3 9 45 122 93 250 l86 232 47 0 47 0 91 -245z m495
129 c43 -70 73 -111 79 -105 5 5 37 55 71 112 l62 104 47 3 47 3 0 -250 0
-251 -45 0 -45 0 -2 160 -3 160 -63 -105 c-35 -58 -69 -105 -76 -105 -8 0 -42
48 -77 107 l-64 108 -3 -163 -2 -162 -45 0 -45 0 0 250 0 250 48 0 47 0 69
-116z"/>
<path d="M3030 2230 c0 -333 2 -345 63 -377 103 -53 271 28 410 198 l37 46 0
217 0 216 -255 0 -255 0 0 -300z"/>
<path d="M3343 568 l-30 -83 59 -3 c33 -2 62 -1 64 1 4 3 -51 156 -59 163 -2
3 -18 -33 -34 -78z"/>
<path d="M5120 625 l0 -75 64 0 c35 0 72 3 81 6 23 9 47 61 39 87 -14 47 -33
57 -111 57 l-73 0 0 -75z"/>
<path d="M5830 625 c-14 -36 -50 -137 -50 -142 0 -1 27 -3 60 -3 42 0 60 4 59
13 0 6 -13 46 -29 87 l-28 75 -12 -30z"/>
</g>
</svg>
